# xmcd
#
# Track frame offsets: 
#        150
#        20192
#        35894
#        55524
#        72849
#        93001
#        108108
#        122147
#        143099
#        161938
#
# Disc length: 2423 seconds
#
# Revision: 2
# Processed by: cddbd v1.5.2PL0 Copyright (c) Steve Scherf et al.
# Submitted via: ExactAudioCopyFreeDBPlugin 1.0
#
DISCID=8609750a
DTITLE=胡鴻鈞 - 胡鴻鈞 -  明知故犯
DYEAR=2015
DGENRE=Acoustic
TTITLE0=明知故犯
TTITLE1=相信明天
TTITLE2=如夢初醒
TTITLE3=讓我放開
TTITLE4=心淡
TTITLE5=真相
TTITLE6=靈魂的痛
TTITLE7=高攀
TTITLE8=無力下去
TTITLE9=明知道
EXTD=
EXTT0=
EXTT1=
EXTT2=
EXTT3=
EXTT4=
EXTT5=
EXTT6=
EXTT7=
EXTT8=
EXTT9=
PLAYORDER=
